<svg xmlns="http://www.w3.org/2000/svg" viewBox="0 0 259.48 350.82"><title>Recurso 1</title><g id="Capa_2" data-name="Capa 2"><g id="Capa_1-2" data-name="Capa 1"><path d="M86.07,71.18c-11.77,18.7-24.57,44.31-8.33,64.57,8.07,10.08,20.64,11.52,31.75,16.42,4.72,2.08,10.15,5.54,11.31,11,1.25,5.86-3.51,11.48-7,15.69-4.85,5.93,3.59,14.47,8.49,8.49,7.38-9,14.08-19.75,8.49-31.51s-18.65-15.42-30.07-19.37-18.6-11.25-18.64-23.79c0-13.11,7.6-24.72,14.33-35.41,4.13-6.55-6.25-12.58-10.36-6.06Z"/><path d="M172.19,199.09c-.7-5.64,1-11.87,3.11-17.07,2.72-6.82,8.32-9.68,15.68-8.82,4.42.51,7.63-5.52,5.18-9-.89-1.27-1.82-2.43-2.83-3.6a18.05,18.05,0,0,1-2-2.31q.27,1.16,1.07.32c2.59-1.63,5.34-2.37,7.68-4.48,5.28-4.74,5.39-11.35,1.73-17.12-3.55-5.61-8.94-9.74-14-13.83-5.79-4.64-11.61-9.26-17.55-13.72a242.42,242.42,0,0,0-38.42-23.25c-13.81-6.83-26.42-15.15-39-24.06C86.47,57.64,80.47,68,86.73,72.48c11.73,8.32,23.52,16.33,36.4,22.78,13,6.53,25.55,13.26,37.36,21.85,5.66,4.12,11.16,8.46,16.63,12.83,4.54,3.63,11.52,7.81,14.28,13.1,1.67,3.2-1.94,3.53-4.46,4.84-2.68,1.39-5.29,3.25-6.66,6-3.41,6.92,2,11.25,5.51,16.32l5.18-9c-10.1-1.18-20.66,3.68-25.25,12.94-3.57,7.2-6.54,16.83-5.53,24.95.93,7.56,12.95,7.66,12,0Z"/><path d="M174.22,172.73c1.58,10.85,13.8,15.72,23.55,14,6.68-1.19,11.62-5.45,17.83-7.55,1.61-.54,1-.64,2.44-.05a27.6,27.6,0,0,1,2.64,1.87,15.29,15.29,0,0,0,8.39,1.89c12.59-.68,17.83-12.93,20.38-23.46,3-12.25,3.89-25.71-7.66-33.74l1.21,9.42c10-10.52,18-26.31,16.27-41.21-1.69-14.71-16-20.68-28.56-24l4.19,7.38c7-16.66,6-38.08-7.18-51.54-11.33-11.58-30.46-15.28-44.42-6.36l7.27.94C173,4.58,137.16-9.06,118.27,12.11l9.42,1.21c-11.82-15.66-32.95-15.89-49.91-9-7.42,3-14.24,8-17,15.81-2.51,7.16-1,15.94,5.09,20.83l4.24-10.24a22.55,22.55,0,0,0-23.6,15.78c-2.83,9.76,2,20.25,10.56,25.33l-2.15-8.21c-4.79,7.6-9.21,17.58-4,26.1,5.37,8.77,18.46,10.51,27.77,11.12,7.71.51,7.68-11.49,0-12-4.74-.31-14.3-.92-17.35-5.2-2.85-4,1.81-10.58,3.94-14a6.08,6.08,0,0,0-2.15-8.21c-10.28-6.14-4.23-19.93,7-18.75,5,.53,8.18-7.07,4.24-10.24-9.16-7.39,4.31-16.08,10.8-18.1,10.27-3.19,24.76-4.79,32.16,5,2.17,2.88,6.59,4.39,9.42,1.21,14.14-15.84,42.59-3.22,55.31,8.18a6.15,6.15,0,0,0,7.27.94c9.87-6.31,23.25-3.18,30.78,5.45,9.36,10.73,8.38,26.57,3.19,38.9-1.25,3,1.37,6.63,4.19,7.38,8.22,2.18,19.94,5.27,20,15.67,0,10.91-5.59,21.77-13,29.51-2.82,3-2,7.2,1.21,9.42,7.06,4.9,3.19,16.57,1.38,23.25-1,3.73-2.22,8.33-5.71,10.53s-4.95.34-7.82-1.45c-7.82-4.88-14.5,1.12-21.64,4.41-5,2.33-15,4.72-16.13-3.24-1.11-7.61-12.67-4.38-11.57,3.19Z"/><path d="M98.08,102.06q1,.08-.31-.06.42.08.84.2t.81.28q-1.15-.49-.27-.05.38.21.73.45-1-.77-.2-.14c.4.42.8.82,1.15,1.27,1.94,2.49,6.48,2.19,8.49,0,2.42-2.64,2.07-5.83,0-8.49a15.4,15.4,0,0,0-11.24-5.47c-3.14-.22-6.14,2.91-6,6a6.14,6.14,0,0,0,6,6Z"/><path d="M148.81,133.29c.4.1.8.26,1.2.35.62.14-.75-.48.18.08.36.22.73.4,1.08.63s.94.91.19.12c.23.24.5.45.73.69,0,0,1,1.15.51.53s.3.49.38.63.78,1.61.27.37c1.18,2.89,4,5.27,7.38,4.19,2.79-.9,5.46-4.27,4.19-7.38-2.36-5.77-6.76-10.22-12.93-11.77-3-.76-6.65,1-7.38,4.19a6.1,6.1,0,0,0,4.19,7.38Z"/><path d="M105.66,120.45c4.36,5.19,11.09,6.84,17.51,7.77,3.2.47,6.45-.79,7.38-4.19.78-2.82-1-6.91-4.19-7.38-4.37-.64-9.22-1.12-12.21-4.69-2.09-2.48-6.33-2.15-8.49,0-2.46,2.46-2.09,6,0,8.49Z"/><path d="M113.12,184.62c-2.74,11.32,14.25,17.22,22.58,20a72,72,0,0,0,34,2.32c7.6-1.22,4.38-12.78-3.19-11.57a59.2,59.2,0,0,1-33.86-4.77c-1.49-.7-2.94-1.47-4.36-2.3q-1.42-.82-2.8-1.72-2.38-2.35-.83,1.27c1.81-7.5-9.75-10.71-11.57-3.19Z"/><path d="M115.46,179c-20.74,1.51-42.66,7.49-54.7,25.89-10.7,16.34-9.34,39.23,6.14,52.06,7.67,6.35,17,10.31,26.22,13.76,10.91,4.06,22.55,6.86,34.26,6.78,18.31-.12,37.42-8.14,47.16-24.27,9.36-15.49,8.6-38.91-1-54.27-4.07-6.54-14.46-.52-10.36,6.06,6.13,9.84,7.62,24.76,3.94,35.67-4.75,14.08-18.7,22.51-32.93,24.4-17,2.26-35.41-3.62-50.41-11.36-6.71-3.46-13.36-8.08-16.3-15.35-2.82-7-2.3-15.05.6-21.91C75.94,198,97.25,192.33,115.46,191c7.66-.56,7.72-12.56,0-12Z"/><path d="M99.36,179.72A57.42,57.42,0,0,0,72.27,154.2c-11.11-5-25.44-7.72-37.2-3.31-5.77,2.16-10.64,6.65-11.85,12.88-1.29,6.63,2.42,13.36,7.1,17.83,10.24,9.77,25.05,10.33,36.46,18,6.43,4.32,12.44-6.07,6.06-10.36-8.34-5.6-18.27-7.14-27.13-11.56-3.83-1.91-9-4.93-10.37-9.36-1.66-5.42,5.16-6.89,9.17-7.27,18.28-1.75,36.1,8.7,44.5,24.76,3.58,6.85,13.94.79,10.36-6.06Z"/><path d="M59.79,233.65C30.61,225.42,1.09,246.7,0,277.07-.46,291,5.76,306.39,18.64,313c12,6.16,31.3,5.09,38.25-8.21,3.74-7.16,1.22-15.54,4.42-22.62,3.39-7.49,16.52-10.17,23.52-12.44,7.31-2.38,4.18-14-3.19-11.57-7.75,2.52-16.36,5.07-23.15,9.75s-9.56,11-10.34,18.95c-.67,6.83,0,13.7-7.45,16.63a20.25,20.25,0,0,1-20.94-4.34c-10.63-10.29-9.5-28.45-2-40.1C26,246.29,42.28,241.18,56.6,245.22c7.44,2.1,10.62-9.47,3.19-11.57Z"/><path d="M122.6,277.06c2.4,7.66-2.06,15.85-7.41,21.21-4.78,4.79-11.23,7.26-16.44,11.51-10.64,8.68-10.23,23.73-.68,33.16,10.58,10.45,27.63,9.12,40.41,4,6.16-2.46,12.11-5.89,16.53-10.93,5.31-6.05,7.6-13.52,9.27-21.25,3.62-16.73,6-35.56-4.83-50.27-4.53-6.16-14.94-.18-10.36,6.06,10,13.66,6.47,32.81,1.94,48-4.27,14.29-21.71,22.62-36.07,20-6.1-1.13-12.35-5.75-12.34-12.56,0-6.56,7.82-9.59,12.52-12.53,12.75-8,23.93-23.9,19-39.52-2.3-7.35-13.89-4.21-11.57,3.19Z"/><path d="M171.15,212.56a162,162,0,0,1,29.41,9.37c8.13,3.38,21.67,8.21,25.58,16.81.86,1.88,1.78,5.33.73,7.32-1.35,2.58-5.4,2.89-7.93,3.06-5.08.34-8.87-1.5-13.38-3.42a73.16,73.16,0,0,1-9.78-5c-5.14-3.14-11-4.69-16-8.14-6.36-4.41-12.36,6-6.06,10.36,5.74,4,12.65,6.42,18.72,9.9,4.19,2.4,9,4.11,13.4,6.07,12.78,5.69,33.56,1.31,33.38-15.53-.16-15-13.85-23.11-25.84-28.82a172.52,172.52,0,0,0-39-13.6c-7.54-1.55-10.76,10-3.19,11.57Z"/></g></g></svg>